# xmcd
#
# Track frame offsets: 
#        150
#        12766
#        26221
#        40436
#        52654
#        65916
#        76588
#        91885
#        104176
#        114736
#        130284
#
# Disc length: 1899 seconds
#
# Revision: 0
# Processed by: cddbd v1.5.2PL0 Copyright (c) Steve Scherf et al.
# Submitted via: ExactAudioCopy v0.99pb4
#
DISCID=9107690b
DTITLE=Percy Sledge - The Best Of Percy Sledge
DYEAR=1900
DGENRE=Blues
TTITLE0=When A Man Loves A Woman
TTITLE1=My Special Prayer
TTITLE2=Warm And Tender Love
TTITLE3=My Adorable One
TTITLE4=Take Time To Know Her
TTITLE5=Thief In The Night
TTITLE6=Out Of The Left Field
TTITLE7=It Tears Me Up
TTITLE8=You're Pouring Water On A Drowning Man
TTITLE9=Just Out Of Reach
TTITLE10=Cover Me
EXTD=
EXTT0=
EXTT1=
EXTT2=
EXTT3=
EXTT4=
EXTT5=
EXTT6=
EXTT7=
EXTT8=
EXTT9=
EXTT10=
PLAYORDER=
